<svg width="150" height="121" viewBox="0 0 150 121" fill="none" xmlns="http://www.w3.org/2000/svg">
<g clip-path="url(#clip0_1_18)">
<path d="M150 39.325L40.2624 77.0165C31.1624 80.1222 23.5187 81.6801 17.3374 81.6801C10.3374 81.6801 5.25619 79.7037 2.10619 75.746C0.124935 73.205 -0.456315 69.9834 0.356185 66.0761C1.16869 62.1688 3.33119 58.0094 6.83119 53.5828C9.74994 50.0033 14.5312 45.2994 21.1874 39.4662C18.9297 42.3332 17.2741 45.4812 16.2874 48.7832C14.5374 54.808 16.1124 59.2295 21.0124 62.0528C23.3437 63.3687 26.5499 64.0292 30.6374 64.0292C33.8999 64.0292 37.5749 63.6057 41.6624 62.7587L150 39.325Z" fill="black"/>
</g>
<defs>
<clipPath id="clip0_1_18">
<rect width="150" height="121" fill="white"/>
</clipPath>
</defs>
</svg>
